<?xml version="1.0" standalone="no"?>
<!DOCTYPE svg PUBLIC "-//W3C//DTD SVG 20010904//EN"
 "http://www.w3.org/TR/2001/REC-SVG-20010904/DTD/svg10.dtd">
<svg version="1.0" xmlns="http://www.w3.org/2000/svg"
 width="150.000000pt" height="150.000000pt" viewBox="0 0 150.000000 150.000000"
 preserveAspectRatio="xMidYMid meet">

<g transform="translate(0.000000,150.000000) scale(0.100000,-0.100000)"
fill="#000000" stroke="none">
<path d="M551 1445 c-13 -23 -16 -35 -8 -35 7 0 18 -4 26 -9 19 -12 -17 -62
-72 -102 -43 -31 -58 -36 -54 -16 1 6 -3 11 -10 10 -20 -4 -3 29 31 60 17 15
-7 2 -53 -30 -46 -32 -88 -65 -93 -73 -7 -11 2 -36 31 -88 l40 -73 -27 -10
c-15 -6 -47 -10 -72 -9 -68 3 -80 1 -80 -10 0 -16 42 -29 140 -41 l90 -12 35
-56 c55 -87 56 -85 -100 -176 -208 -121 -217 -130 -230 -228 -14 -105 55 -222
160 -271 91 -43 241 -70 320 -57 29 5 50 1 78 -13 50 -24 141 -25 265 -1 125
23 148 40 194 145 48 109 49 151 6 216 -19 26 -50 56 -70 67 -53 27 -145 33
-202 14 l-46 -16 -59 67 c-33 37 -73 87 -90 111 l-29 45 54 61 c30 34 66 68
80 76 40 21 49 47 26 72 -22 25 -58 99 -67 140 -4 15 -12 27 -18 27 -6 0 -47
-18 -92 -39 -44 -22 -103 -49 -131 -60 l-50 -19 -42 54 c-42 55 -51 71 -31 59
6 -4 39 7 74 24 58 29 93 59 120 105 9 15 14 14 54 -15 38 -28 42 -29 30 -9
-11 18 -11 24 -1 27 14 5 17 33 3 33 -5 0 -29 20 -53 45 -24 24 -46 45 -50 45
-3 0 -15 -16 -27 -35z m163 -348 c15 -19 26 -41 26 -49 0 -15 -110 -109 -127
-107 -4 0 -25 23 -45 51 l-37 51 72 43 c40 23 75 42 79 43 4 1 18 -14 32 -32z
m-156 -18 c-56 -37 -179 -62 -193 -40 -8 14 27 30 119 55 69 19 82 20 84 8 2
-8 -2 -18 -10 -23z m155 -154 c-18 -38 -30 -44 -40 -18 -4 10 2 23 16 35 35
27 43 22 24 -17z m-59 -266 c25 -47 44 -88 41 -91 -3 -3 -26 6 -52 18 -27 14
-64 24 -89 24 -37 0 -42 3 -37 18 13 37 77 132 83 125 4 -4 28 -47 54 -94z
m414 -63 c26 -13 53 -30 59 -38 17 -23 23 -47 11 -54 -7 -4 -8 -3 -4 4 5 8 -2
10 -24 6 -18 -4 -30 -2 -30 4 0 6 -20 18 -45 28 -36 13 -62 15 -125 10 l-81
-7 7 28 c4 16 9 31 13 35 25 26 154 17 219 -16z m-800 -127 c51 -78 107 -119
163 -119 14 0 40 -5 58 -11 34 -12 39 -31 19 -74 -11 -25 -16 -26 -58 -21 -59
7 -105 23 -152 53 -38 23 -85 78 -80 94 1 5 -2 9 -7 9 -9 0 -20 77 -14 96 8
22 48 7 71 -27z"/>
<path d="M1069 1330 c-26 -4 -55 -12 -65 -18 -11 -5 -25 -7 -31 -5 -7 3 -13 0
-13 -6 0 -5 8 -8 18 -7 9 2 24 -3 32 -12 13 -14 12 -15 -3 -9 -9 3 -27 2 -39
-3 -18 -7 -12 -9 30 -9 38 -1 69 6 108 26 73 36 88 53 43 52 -19 -1 -55 -5
-80 -9z"/>
<path d="M818 1263 c6 -2 18 -2 25 0 6 3 1 5 -13 5 -14 0 -19 -2 -12 -5z"/>
</g>
</svg>
